inDegrees=no
num_controls=7
num_derivatives=13
num_iterations=105
num_multipliers=7
num_parameters=0
num_slacks=7
num_states=26
objective=5.062508
objective_accelerations=0.407985
objective_balance=0.073849
objective_effort=0.384133
objective_height=4.134671
objective_ligament=0.061870
solver_duration=1178.799305
status=Solve_Succeeded
success=true
DataType=double
version=3
OpenSimVersion=4.4-2022-07-23-0e9fedc
endheader
time	/jointset/ground_pelvis/pelvis_tilt/value	/jointset/ground_pelvis/pelvis_tx/value	/jointset/ground_pelvis/pelvis_ty/value	/jointset/hip_l/hip_flexion_l/value	/jointset/hip_l/hip_adduction_l/value	/jointset/hip_l/hip_rotation_l/value	/jointset/back/lumbar_extension/value	/jointset/patellofemoral_l/patellar_flexion_l/value	/jointset/knee_l/knee_flexion_l/value	/jointset/knee_l/knee_adduction_l/value	/jointset/knee_l/knee_rotation_l/value	/jointset/ankle_l/ankle_angle_l/value	/jointset/subtalar_l/subtalar_angle_l/value	/jointset/ground_pelvis/pelvis_tilt/speed	/jointset/ground_pelvis/pelvis_tx/speed	/jointset/ground_pelvis/pelvis_ty/speed	/jointset/hip_l/hip_flexion_l/speed	/jointset/hip_l/hip_adduction_l/speed	/jointset/hip_l/hip_rotation_l/speed	/jointset/back/lumbar_extension/speed	/jointset/patellofemoral_l/patellar_flexion_l/speed	/jointset/knee_l/knee_flexion_l/speed	/jointset/knee_l/knee_adduction_l/speed	/jointset/knee_l/knee_rotation_l/speed	/jointset/ankle_l/ankle_angle_l/speed	/jointset/subtalar_l/subtalar_angle_l/speed	/forceset/tau_hip_flexion_l	/forceset/tau_hip_adduction_l	/forceset/tau_hip_rotation_l	/forceset/tau_knee_flexion_l	/forceset/tau_ankle_angle_l	/forceset/tau_subtalar_angle_l	/forceset/tau_lumbar_extension	lambda_cid13_p0	lambda_cid13_p1	lambda_cid13_p2	lambda_cid13_p3	lambda_cid13_p4	lambda_cid13_p5	lambda_cid14_p0	/jointset/ground_pelvis/pelvis_tilt/accel	/jointset/ground_pelvis/pelvis_tx/accel	/jointset/ground_pelvis/pelvis_ty/accel	/jointset/hip_l/hip_flexion_l/accel	/jointset/hip_l/hip_adduction_l/accel	/jointset/hip_l/hip_rotation_l/accel	/jointset/back/lumbar_extension/accel	/jointset/patellofemoral_l/patellar_flexion_l/accel	/jointset/knee_l/knee_flexion_l/accel	/jointset/knee_l/knee_adduction_l/accel	/jointset/knee_l/knee_rotation_l/accel	/jointset/ankle_l/ankle_angle_l/accel	/jointset/subtalar_l/subtalar_angle_l/accel	gamma_cid13_p0	gamma_cid13_p1	gamma_cid13_p2	gamma_cid13_p3	gamma_cid13_p4	gamma_cid13_p5	gamma_cid14_p0
0	-0.1601671532823318	0.05857452814568642	0.8979987394864635	0.3774920279260975	-0.2591371686009984	-0.2729668096621755	-0.0126506700172305	0.0322362312842185	0.03223623128433527	-0.174532820557687	0.1745239007660287	-0.04231376238535053	-0.009261638136127993	0	0	0	0	0	0	0	0	0	0	0	0	0	0.1401621656494547	-0.05926268421362618	-0.05091222225168698	-0.2988559107812555	0.3080012392019116	-0.06004322977921391	-0.08444636298497574	55.62205523092061	9.580171420582056	5.789026324864539	-5.672267593927032	-597.524197386175	-57.91697532553125	-39.07392330949244	-3.760381309632299	-1.858417450104289	-0.9147349792415735	10.27811592633017	-0.9431556427095453	2.328238551049592	-5.239020641364939	6.809475999668777	6.80947599966863	0.07070512636424728	0.01915851906460551	0.3414206038535455	-0.8876330218468698	-1.447684710289012e-08	6.33733518083759e-08	2.479284761754888e-08	4.219248130803709e-09	2.739273799389724e-08	1.917624169232448e-08	-2.793075687852368e-09
0.01	-0.1603490356695199	0.05848257881568731	0.8979539848328316	0.3779936537704532	-0.259184377547527	-0.2728506892423769	-0.01291330193176736	0.03256901741016852	0.03256901741015144	-0.1745312905979767	0.1745226438301446	-0.04229858947703499	-0.009306495413511041	-0.03616595883984243	-0.01832409623019779	-0.008918564650576931	0.0998669310110626	-0.009416056815888731	0.02312994967906091	-0.05219478208658954	0.06629906321252328	0.06629906321251926	0.0002733654449209569	-0.0002460668194373118	0.003015823435820559	-0.008949332741115363	0.1338893144106466	-0.0694494621739131	-0.04952936437246599	-0.2907959784463575	0.2947307656934359	-0.04492789008653163	-0.07949760960052735	51.93371314632971	3.950943244209005	6.355728805011803	-4.000669948214421	-598.2334986693868	-68.68309444556678	-39.08341282226453	-3.513128944877843	-1.809539391400874	-0.8755568180214975	9.772242878880119	-0.9369813328262496	2.291251364476743	-5.159966875203045	6.501397743733771	6.501397743733318	0.0007705355062273371	-0.04569191991438488	0.2788485432674157	-0.8952776148896429	-2.919220824469698e-08	7.070867524518177e-08	5.64536538500897e-08	1.172589142573371e-08	-4.395178077628194e-08	2.089194617998482e-08	-9.011616441232408e-09
0.02	-0.1608862627997064	0.05820936178701081	0.897821016610686	0.3794802011632717	-0.259324977188571	-0.2725060936882177	-0.01368793364367926	0.0335570494204971	0.03355704942050436	-0.1745280033279484	0.1745190856988662	-0.04225382126839141	-0.009440184861234867	-0.07106894862891885	-0.03625353973547604	-0.01764271370279553	0.1969843096376137	-0.01867813890373025	0.04569502688378897	-0.1023999594894828	0.1310491768926338	0.1310491768926265	0.0003514621677604404	-0.0004602391375385724	0.005919060064512359	-0.01776643406810298	0.127616463173333	-0.07963624013423881	-0.04814650649184943	-0.2827360461111326	0.2814602921850199	-0.02981255039389059	-0.07454885621488294	48.30340108590706	-1.687842154322731	6.92326804079944	-2.401205895361481	-598.0396986969299	-79.36900350022981	-39.11153026553185	-3.50778749948248	-1.779486905117241	-0.8758518595698902	9.72820544942709	-0.9123606971006558	2.215264056183031	-4.841099704627469	6.499686093185674	6.499686093185665	0.0316513819466895	0.02553741933180776	0.3189032424312519	-0.8611867390210497	-4.390756938650384e-08	7.804399868198765e-08	8.811446008263053e-08	1.92325347206637e-08	-1.152962995464611e-07	2.260765066764516e-08	-1.523015719461245e-08
0.03	-0.1617667948807108	0.05775905350355147	0.8976016581947709	0.3819244643335645	-0.2595569316133826	-0.2719389453926641	-0.01495432001448987	0.03518450655573956	0.03518450655587824	-0.1745242217007143	0.1745136578065017	-0.04218039985738635	-0.009660859132867159	-0.1048608522343478	-0.05371773784329037	-0.02620475011771833	0.2914010046340013	-0.02764328780574198	0.06761489614524011	-0.1505358771787139	0.1941380639062054	0.1941380639062002	0.0004283913931524004	-0.0006140803232404753	0.008761635068331265	-0.02630023463706652	0.1219301393908166	-0.07388780764105622	-0.04727280078247986	-0.2770572547824696	0.2757848468579321	-0.03199509090448766	-0.06992841645273568	46.41088626239195	-0.5286024769247365	6.875525308927061	-1.76046385593211	-598.148860946382	-76.14329877802334	-39.15750837918499	-3.288404843664152	-1.716325511390993	-0.8427699755938962	9.228295902535759	-0.8781856097102269	2.162375507540047	-4.748622181738606	6.167865136739314	6.167865136739819	-0.0007375742210557327	-0.03416750121054453	0.2663942558846361	-0.8392708482474593	-5.363509796899853e-08	8.436754209127759e-08	9.606823262742984e-08	2.930291991001409e-08	-1.828239831328597e-07	3.075449116869664e-08	-1.684227185121282e-08
0.04	-0.1629799486081447	0.05713681538946729	0.8972974013260788	0.3852988733293994	-0.2598764562518069	-0.2711561929751862	-0.01669182243831789	0.0374337275874418	0.03743372758745159	-0.1745189610344332	0.1745070269794503	-0.04207866077103056	-0.009964830236671439	-0.1375932779439048	-0.07063950586044451	-0.03462240425820167	0.3830134747420602	-0.03619218162611221	0.088815851263243	-0.1966231700950523	0.2554019561716277	0.2554019561716239	0.0006472699362039812	-0.0007008260564921021	0.01158259513328265	-0.03442580050259712	0.1162438156073892	-0.06813937514798073	-0.04639909507398164	-0.2713784634541467	0.2701094015306575	-0.03417763141521958	-0.06530797669117792	44.57194814792019	0.6228049980243161	6.827263965314059	-1.190338141277095	-597.4371899089992	-72.84109300341531	-39.22044217178834	-3.295891920311309	-1.671000886982196	-0.8469754046819975	9.167360471760578	-0.8291096807731175	2.071481227493182	-4.431374750050641	6.134687143555302	6.134687143555158	0.06004124547696995	0.03895650982208944	0.3145802546609999	-0.7795397983344218	-6.325978464305379e-08	9.067022405670123e-08	1.035332003539252e-07	3.94261657569814e-08	-2.50272969086603e-07	3.903393241229228e-08	-1.835940865014763e-08
0.05	-0.1645153454956511	0.0563480334843012	0.8969095179945263	0.3895760438928638	-0.2602795030902553	-0.2701648277148782	-0.01887979371635346	0.04028708437796149	0.04028708437800749	-0.1745109987812554	0.174499884023718	-0.04194864694139483	-0.01034809715186475	-0.169297959846307	-0.08702780288448118	-0.04294202462066236	0.4719595537157906	-0.04436465568942732	0.1093603405706926	-0.2406461812007228	0.3149934272199215	0.3149934272198978	0.0009318097885618498	-0.0007280547827394606	0.01442252499256657	-0.04217553235913669	0.109905000293972	-0.06609448274328351	-0.04538725805543427	-0.2654522311474934	0.2631552375973446	-0.03228633805714887	-0.06024574574594891	42.48153475142635	0.150360436637909	6.922084363093211	-0.5325270727001328	-596.7738470910092	-72.78429227953798	-39.29917849607045	-3.079539648510116	-1.609375291904427	-0.8226703369041172	8.68905971782468	-0.8034465982412851	2.031388733467073	-4.339028648729525	5.829984561519685	5.829984561517003	0.01067603413919665	-0.02362013146825108	0.269048955859192	-0.7649076866546511	-7.209561477388929e-08	9.676084266576672e-08	1.167706682643217e-07	4.687624533540777e-08	-2.981732696692162e-07	4.183878002472885e-08	-2.065744465718093e-08
0.06	-0.1663621458667104	0.05539804237254494	0.8964387954623743	0.3947288408676728	-0.2607627007351665	-0.2689709263712867	-0.02149824797700987	0.04372807737416701	0.04372807737417661	-0.1745005879937312	0.1744924572672311	-0.04179016389230186	-0.01080730494709152	-0.1998739746814049	-0.1028813471784755	-0.05119024437814304	0.5581387569953443	-0.05222234291799976	0.1293230679219782	-0.2827197666229453	0.3729291973103417	0.3729291973103036	0.00113697680182911	-0.0007575862137778445	0.01727643902376896	-0.04961397650933242	0.1035661849803358	-0.06404959033857122	-0.04437542103680473	-0.2595259988409542	0.2562010736639882	-0.0303950446990742	-0.05518351480088329	40.43844671279563	-0.328331082731055	7.015572500499633	0.06050424806669631	-595.3788709141127	-72.656674937803	-39.39255364145095	-3.070158506853459	-1.564050340970886	-0.8326952836859911	8.613985332924489	-0.7661523138252972	1.955128836260116	-4.041489613362669	5.803546951980116	5.803546951981049	0.04416667765728544	0.03849596886418134	0.3173770890477546	-0.7172822570656225	-8.089822989237867e-08	1.028425322914066e-07	1.302511888140403e-07	5.421377054463242e-08	-3.45250467709887e-07	4.441311843164293e-08	-2.298836063087101e-08
